<?xml version="1.0" encoding="UTF-8"?>
<svg width="326px" height="92px" viewBox="0 0 326 92" version="1.1" xmlns="http://www.w3.org/2000/svg" xmlns:xlink="http://www.w3.org/1999/xlink">
    <g id="Page-1" stroke="none" stroke-width="1" fill="none" fill-rule="evenodd">
        <g id="Group" transform="translate(-5.000000, -26.000000)" fill-rule="nonzero">
            <path d="M44.16,82 L44.16,71.2 L18.32,71.2 L18.32,59.12 L40.48,59.12 L40.48,48.4 L18.32,48.4 L18.32,36.96 L44.16,36.96 L44.16,26.16 L6.16,26.16 L6.16,82 L44.16,82 Z M71.04,82.96 C75.2,82.96 78.7333333,82.0266667 81.64,80.16 C84.5466667,78.2933333 86.6933333,75.36 88.08,71.36 L88.08,71.36 L78.88,67.36 C78.2933333,69.2266667 77.3733333,70.7333333 76.12,71.88 C74.8666667,73.0266667 73.1733333,73.6 71.04,73.6 C68.64,73.6 66.8266667,72.8266667 65.6,71.28 C64.3733333,69.7333333 63.76,67.6266667 63.76,64.96 L63.76,64.96 L63.76,57.12 C63.76,54.4533333 64.3733333,52.3333333 65.6,50.76 C66.8266667,49.1866667 68.64,48.4 71.04,48.4 C73.12,48.4 74.7466667,48.96 75.92,50.08 C77.0933333,51.2 77.8666667,52.56 78.24,54.16 L78.24,54.16 L87.84,50 C86.6133333,46.5333333 84.5733333,43.84 81.72,41.92 C78.8666667,40 75.3066667,39.04 71.04,39.04 C67.8933333,39.04 65.0933333,39.5466667 62.64,40.56 C60.1866667,41.5733333 58.1333333,43.04 56.48,44.96 C54.8266667,46.88 53.5733333,49.1866667 52.72,51.88 C51.8666667,54.5733333 51.44,57.6 51.44,60.96 C51.44,64.32 51.8666667,67.36 52.72,70.08 C53.5733333,72.8 54.8266667,75.1066667 56.48,77 C58.1333333,78.8933333 60.1866667,80.36 62.64,81.4 C65.0933333,82.44 67.8933333,82.96 71.04,82.96 Z M112.48,82.96 C115.573333,82.96 118.333333,82.4533333 120.76,81.44 C123.186667,80.4266667 125.24,78.96 126.92,77.04 C128.6,75.12 129.893333,72.8 130.8,70.08 C131.706667,67.36 132.16,64.32 132.16,60.96 C132.16,57.6 131.706667,54.56 130.8,51.84 C129.893333,49.12 128.6,46.8133333 126.92,44.92 C125.24,43.0266667 123.186667,41.5733333 120.76,40.56 C118.333333,39.5466667 115.573333,39.04 112.48,39.04 C109.386667,39.04 106.626667,39.5466667 104.2,40.56 C101.773333,41.5733333 99.72,43.0266667 98.04,44.92 C96.36,46.8133333 95.0666667,49.12 94.16,51.84 C93.2533333,54.56 92.8,57.6 92.8,60.96 C92.8,64.32 93.2533333,67.36 94.16,70.08 C95.0666667,72.8 96.36,75.12 98.04,77.04 C99.72,78.96 101.773333,80.4266667 104.2,81.44 C106.626667,82.4533333 109.386667,82.96 112.48,82.96 Z M112.48,73.6 C110.133333,73.6 108.32,72.88 107.04,71.44 C105.76,70 105.12,67.9466667 105.12,65.28 L105.12,65.28 L105.12,56.72 C105.12,54.0533333 105.76,52 107.04,50.56 C108.32,49.12 110.133333,48.4 112.48,48.4 C114.826667,48.4 116.64,49.12 117.92,50.56 C119.2,52 119.84,54.0533333 119.84,56.72 L119.84,56.72 L119.84,65.28 C119.84,67.9466667 119.2,70 117.92,71.44 C116.64,72.88 114.826667,73.6 112.48,73.6 Z" id="Eco" fill="#FF3800"></path>
            <path d="M17.22,117 L17.22,114.78 L8.31,114.78 L8.31,96.06 L5.79,96.06 L5.79,117 L17.22,117 Z M24.54,117.36 C25.62,117.36 26.55,117.12 27.33,116.64 C28.11,116.16 28.67,115.44 29.01,114.48 L29.01,114.48 L29.16,114.48 C29.26,115.2 29.505,115.8 29.895,116.28 C30.285,116.76 30.93,117 31.83,117 L31.83,117 L33.18,117 L33.18,114.9 L31.41,114.9 L31.41,106.38 C31.41,104.74 30.89,103.46 29.85,102.54 C28.81,101.62 27.35,101.16 25.47,101.16 C24.07,101.16 22.91,101.455 21.99,102.045 C21.07,102.635 20.4,103.35 19.98,104.19 L19.98,104.19 L21.42,105.54 C21.84,104.84 22.365,104.28 22.995,103.86 C23.625,103.44 24.41,103.23 25.35,103.23 C26.59,103.23 27.51,103.52 28.11,104.1 C28.71,104.68 29.01,105.52 29.01,106.62 L29.01,106.62 L29.01,108.15 L25.95,108.15 C23.69,108.15 22.025,108.54 20.955,109.32 C19.885,110.1 19.35,111.22 19.35,112.68 C19.35,114.12 19.805,115.26 20.715,116.1 C21.625,116.94 22.9,117.36 24.54,117.36 Z M24.93,115.32 C23.99,115.32 23.245,115.11 22.695,114.69 C22.145,114.27 21.87,113.68 21.87,112.92 L21.87,112.92 L21.87,112.29 C21.87,111.53 22.185,110.95 22.815,110.55 C23.445,110.15 24.45,109.95 25.83,109.95 L25.83,109.95 L29.01,109.95 L29.01,112.5 C29.01,112.9 28.91,113.27 28.71,113.61 C28.51,113.95 28.23,114.25 27.87,114.51 C27.51,114.77 27.08,114.97 26.58,115.11 C26.08,115.25 25.53,115.32 24.93,115.32 Z M39,117 L39,106.5 C39,105.76 39.365,105.145 40.095,104.655 C40.825,104.165 41.84,103.92 43.14,103.92 L43.14,103.92 L44.55,103.92 L44.55,101.52 L43.62,101.52 C42.36,101.52 41.37,101.81 40.65,102.39 C39.93,102.97 39.43,103.63 39.15,104.37 L39.15,104.37 L39,104.37 L39,101.52 L36.6,101.52 L36.6,117 L39,117 Z M51.57,117.36 C52.65,117.36 53.58,117.12 54.36,116.64 C55.14,116.16 55.7,115.44 56.04,114.48 L56.04,114.48 L56.19,114.48 C56.29,115.2 56.535,115.8 56.925,116.28 C57.315,116.76 57.96,117 58.86,117 L58.86,117 L60.21,117 L60.21,114.9 L58.44,114.9 L58.44,106.38 C58.44,104.74 57.92,103.46 56.88,102.54 C55.84,101.62 54.38,101.16 52.5,101.16 C51.1,101.16 49.94,101.455 49.02,102.045 C48.1,102.635 47.43,103.35 47.01,104.19 L47.01,104.19 L48.45,105.54 C48.87,104.84 49.395,104.28 50.025,103.86 C50.655,103.44 51.44,103.23 52.38,103.23 C53.62,103.23 54.54,103.52 55.14,104.1 C55.74,104.68 56.04,105.52 56.04,106.62 L56.04,106.62 L56.04,108.15 L52.98,108.15 C50.72,108.15 49.055,108.54 47.985,109.32 C46.915,110.1 46.38,111.22 46.38,112.68 C46.38,114.12 46.835,115.26 47.745,116.1 C48.655,116.94 49.93,117.36 51.57,117.36 Z M51.96,115.32 C51.02,115.32 50.275,115.11 49.725,114.69 C49.175,114.27 48.9,113.68 48.9,112.92 L48.9,112.92 L48.9,112.29 C48.9,111.53 49.215,110.95 49.845,110.55 C50.475,110.15 51.48,109.95 52.86,109.95 L52.86,109.95 L56.04,109.95 L56.04,112.5 C56.04,112.9 55.94,113.27 55.74,113.61 C55.54,113.95 55.26,114.25 54.9,114.51 C54.54,114.77 54.11,114.97 53.61,115.11 C53.11,115.25 52.56,115.32 51.96,115.32 Z M69.84,117 L75.3,101.52 L72.99,101.52 L70.23,109.2 L68.55,114.48 L68.4,114.48 L66.72,109.2 L64.02,101.52 L61.62,101.52 L67.05,117 L69.84,117 Z M84.21,117.36 C85.67,117.36 86.93,117.035 87.99,116.385 C89.05,115.735 89.83,114.88 90.33,113.82 L90.33,113.82 L88.62,112.59 C88.22,113.45 87.655,114.11 86.925,114.57 C86.195,115.03 85.34,115.26 84.36,115.26 C83.64,115.26 82.995,115.14 82.425,114.9 C81.855,114.66 81.375,114.33 80.985,113.91 C80.595,113.49 80.295,112.995 80.085,112.425 C79.875,111.855 79.77,111.24 79.77,110.58 L79.77,110.58 L79.77,109.86 L90.9,109.86 L90.9,108.72 C90.9,107.62 90.745,106.61 90.435,105.69 C90.125,104.77 89.68,103.975 89.1,103.305 C88.52,102.635 87.82,102.11 87,101.73 C86.18,101.35 85.25,101.16 84.21,101.16 C83.15,101.16 82.195,101.35 81.345,101.73 C80.495,102.11 79.765,102.655 79.155,103.365 C78.545,104.075 78.075,104.93 77.745,105.93 C77.415,106.93 77.25,108.04 77.25,109.26 C77.25,110.5 77.415,111.615 77.745,112.605 C78.075,113.595 78.545,114.445 79.155,115.155 C79.765,115.865 80.495,116.41 81.345,116.79 C82.195,117.17 83.15,117.36 84.21,117.36 Z M88.32,108.06 L79.77,108.06 L79.77,107.85 C79.77,107.17 79.88,106.545 80.1,105.975 C80.32,105.405 80.625,104.91 81.015,104.49 C81.405,104.07 81.87,103.745 82.41,103.515 C82.95,103.285 83.55,103.17 84.21,103.17 C85.45,103.17 86.445,103.585 87.195,104.415 C87.945,105.245 88.32,106.35 88.32,107.73 L88.32,107.73 L88.32,108.06 Z M99.54,117 L99.54,114.9 L97.26,114.9 L97.26,94.8 L94.86,94.8 L94.86,114.51 C94.86,115.23 95.075,115.825 95.505,116.295 C95.935,116.765 96.57,117 97.41,117 L97.41,117 L99.54,117 Z M123.12,117 L123.12,114.78 L112.86,114.78 L112.86,107.52 L122.52,107.52 L122.52,105.3 L112.86,105.3 L112.86,98.28 L123.12,98.28 L123.12,96.06 L110.34,96.06 L110.34,117 L123.12,117 Z M129.99,117 L129.99,106.26 C129.99,105.76 130.095,105.325 130.305,104.955 C130.515,104.585 130.8,104.28 131.16,104.04 C131.52,103.8 131.925,103.62 132.375,103.5 C132.825,103.38 133.29,103.32 133.77,103.32 C136.11,103.32 137.28,104.71 137.28,107.49 L137.28,107.49 L137.28,117 L139.68,117 L139.68,107.07 C139.68,105.19 139.215,103.735 138.285,102.705 C137.355,101.675 136.09,101.16 134.49,101.16 C133.33,101.16 132.405,101.42 131.715,101.94 C131.025,102.46 130.49,103.16 130.11,104.04 L130.11,104.04 L129.99,104.04 L129.99,101.52 L127.59,101.52 L127.59,117 L129.99,117 Z M150.84,117 L156.3,101.52 L153.99,101.52 L151.23,109.2 L149.55,114.48 L149.4,114.48 L147.72,109.2 L145.02,101.52 L142.62,101.52 L148.05,117 L150.84,117 Z M160.59,97.89 C161.11,97.89 161.485,97.765 161.715,97.515 C161.945,97.265 162.06,96.94 162.06,96.54 L162.06,96.54 L162.06,96.15 C162.06,95.75 161.945,95.425 161.715,95.175 C161.485,94.925 161.11,94.8 160.59,94.8 C160.07,94.8 159.695,94.925 159.465,95.175 C159.235,95.425 159.12,95.75 159.12,96.15 L159.12,96.15 L159.12,96.54 C159.12,96.94 159.235,97.265 159.465,97.515 C159.695,97.765 160.07,97.89 160.59,97.89 Z M161.79,117 L161.79,101.52 L159.39,101.52 L159.39,117 L161.79,117 Z M169.29,117 L169.29,106.5 C169.29,105.76 169.655,105.145 170.385,104.655 C171.115,104.165 172.13,103.92 173.43,103.92 L173.43,103.92 L174.84,103.92 L174.84,101.52 L173.91,101.52 C172.65,101.52 171.66,101.81 170.94,102.39 C170.22,102.97 169.72,103.63 169.44,104.37 L169.44,104.37 L169.29,104.37 L169.29,101.52 L166.89,101.52 L166.89,117 L169.29,117 Z M183.75,117.36 C184.79,117.36 185.735,117.17 186.585,116.79 C187.435,116.41 188.17,115.865 188.79,115.155 C189.41,114.445 189.89,113.595 190.23,112.605 C190.57,111.615 190.74,110.5 190.74,109.26 C190.74,108.04 190.57,106.93 190.23,105.93 C189.89,104.93 189.41,104.075 188.79,103.365 C188.17,102.655 187.435,102.11 186.585,101.73 C185.735,101.35 184.79,101.16 183.75,101.16 C182.71,101.16 181.76,101.35 180.9,101.73 C180.04,102.11 179.305,102.655 178.695,103.365 C178.085,104.075 177.61,104.93 177.27,105.93 C176.93,106.93 176.76,108.04 176.76,109.26 C176.76,110.5 176.93,111.615 177.27,112.605 C177.61,113.595 178.085,114.445 178.695,115.155 C179.305,115.865 180.04,116.41 180.9,116.79 C181.76,117.17 182.71,117.36 183.75,117.36 Z M183.75,115.23 C182.45,115.23 181.39,114.83 180.57,114.03 C179.75,113.23 179.34,112.01 179.34,110.37 L179.34,110.37 L179.34,108.15 C179.34,106.51 179.75,105.29 180.57,104.49 C181.39,103.69 182.45,103.29 183.75,103.29 C185.05,103.29 186.11,103.69 186.93,104.49 C187.75,105.29 188.16,106.51 188.16,108.15 L188.16,108.15 L188.16,110.37 C188.16,112.01 187.75,113.23 186.93,114.03 C186.11,114.83 185.05,115.23 183.75,115.23 Z M197.1,117 L197.1,106.26 C197.1,105.76 197.205,105.325 197.415,104.955 C197.625,104.585 197.91,104.28 198.27,104.04 C198.63,103.8 199.035,103.62 199.485,103.5 C199.935,103.38 200.4,103.32 200.88,103.32 C203.22,103.32 204.39,104.71 204.39,107.49 L204.39,107.49 L204.39,117 L206.79,117 L206.79,107.07 C206.79,105.19 206.325,103.735 205.395,102.705 C204.465,101.675 203.2,101.16 201.6,101.16 C200.44,101.16 199.515,101.42 198.825,101.94 C198.135,102.46 197.6,103.16 197.22,104.04 L197.22,104.04 L197.1,104.04 L197.1,101.52 L194.7,101.52 L194.7,117 L197.1,117 Z M214.14,117 L214.14,106.26 C214.14,105.76 214.245,105.325 214.455,104.955 C214.665,104.585 214.94,104.28 215.28,104.04 C215.62,103.8 216.01,103.62 216.45,103.5 C216.89,103.38 217.35,103.32 217.83,103.32 C218.97,103.32 219.81,103.67 220.35,104.37 C220.89,105.07 221.16,106.11 221.16,107.49 L221.16,107.49 L221.16,117 L223.56,117 L223.56,106.26 C223.56,105.76 223.66,105.325 223.86,104.955 C224.06,104.585 224.33,104.28 224.67,104.04 C225.01,103.8 225.395,103.62 225.825,103.5 C226.255,103.38 226.71,103.32 227.19,103.32 C228.37,103.32 229.23,103.67 229.77,104.37 C230.31,105.07 230.58,106.11 230.58,107.49 L230.58,107.49 L230.58,117 L232.98,117 L232.98,107.07 C232.98,105.19 232.535,103.735 231.645,102.705 C230.755,101.675 229.52,101.16 227.94,101.16 C226.62,101.16 225.575,101.475 224.805,102.105 C224.035,102.735 223.51,103.47 223.23,104.31 L223.23,104.31 L223.17,104.31 C222.75,103.19 222.11,102.385 221.25,101.895 C220.39,101.405 219.45,101.16 218.43,101.16 C217.83,101.16 217.31,101.235 216.87,101.385 C216.43,101.535 216.045,101.74 215.715,102 C215.385,102.26 215.105,102.565 214.875,102.915 C214.645,103.265 214.44,103.64 214.26,104.04 L214.26,104.04 L214.14,104.04 L214.14,101.52 L211.74,101.52 L211.74,117 L214.14,117 Z M243.75,117.36 C245.21,117.36 246.47,117.035 247.53,116.385 C248.59,115.735 249.37,114.88 249.87,113.82 L249.87,113.82 L248.16,112.59 C247.76,113.45 247.195,114.11 246.465,114.57 C245.735,115.03 244.88,115.26 243.9,115.26 C243.18,115.26 242.535,115.14 241.965,114.9 C241.395,114.66 240.915,114.33 240.525,113.91 C240.135,113.49 239.835,112.995 239.625,112.425 C239.415,111.855 239.31,111.24 239.31,110.58 L239.31,110.58 L239.31,109.86 L250.44,109.86 L250.44,108.72 C250.44,107.62 250.285,106.61 249.975,105.69 C249.665,104.77 249.22,103.975 248.64,103.305 C248.06,102.635 247.36,102.11 246.54,101.73 C245.72,101.35 244.79,101.16 243.75,101.16 C242.69,101.16 241.735,101.35 240.885,101.73 C240.035,102.11 239.305,102.655 238.695,103.365 C238.085,104.075 237.615,104.93 237.285,105.93 C236.955,106.93 236.79,108.04 236.79,109.26 C236.79,110.5 236.955,111.615 237.285,112.605 C237.615,113.595 238.085,114.445 238.695,115.155 C239.305,115.865 240.035,116.41 240.885,116.79 C241.735,117.17 242.69,117.36 243.75,117.36 Z M247.86,108.06 L239.31,108.06 L239.31,107.85 C239.31,107.17 239.42,106.545 239.64,105.975 C239.86,105.405 240.165,104.91 240.555,104.49 C240.945,104.07 241.41,103.745 241.95,103.515 C242.49,103.285 243.09,103.17 243.75,103.17 C244.99,103.17 245.985,103.585 246.735,104.415 C247.485,105.245 247.86,106.35 247.86,107.73 L247.86,107.73 L247.86,108.06 Z M256.8,117 L256.8,106.26 C256.8,105.76 256.905,105.325 257.115,104.955 C257.325,104.585 257.61,104.28 257.97,104.04 C258.33,103.8 258.735,103.62 259.185,103.5 C259.635,103.38 260.1,103.32 260.58,103.32 C262.92,103.32 264.09,104.71 264.09,107.49 L264.09,107.49 L264.09,117 L266.49,117 L266.49,107.07 C266.49,105.19 266.025,103.735 265.095,102.705 C264.165,101.675 262.9,101.16 261.3,101.16 C260.14,101.16 259.215,101.42 258.525,101.94 C257.835,102.46 257.3,103.16 256.92,104.04 L256.92,104.04 L256.8,104.04 L256.8,101.52 L254.4,101.52 L254.4,117 L256.8,117 Z M277.86,117 L277.86,114.9 L274.71,114.9 L274.71,103.62 L278.1,103.62 L278.1,101.52 L274.71,101.52 L274.71,97.23 L272.55,97.23 L272.55,100.11 C272.55,100.63 272.455,100.995 272.265,101.205 C272.075,101.415 271.72,101.52 271.2,101.52 L271.2,101.52 L269.76,101.52 L269.76,103.62 L272.31,103.62 L272.31,114.45 C272.31,115.21 272.525,115.825 272.955,116.295 C273.385,116.765 274.02,117 274.86,117 L274.86,117 L277.86,117 Z M296.67,117.36 C298.43,117.36 299.93,116.935 301.17,116.085 C302.41,115.235 303.36,114.07 304.02,112.59 L304.02,112.59 L302.01,111.33 C301.59,112.47 300.93,113.385 300.03,114.075 C299.13,114.765 298.01,115.11 296.67,115.11 C294.85,115.11 293.44,114.5 292.44,113.28 C291.44,112.06 290.94,110.37 290.94,108.21 L290.94,108.21 L290.94,105.09 C290.94,104.01 291.07,103.035 291.33,102.165 C291.59,101.295 291.965,100.545 292.455,99.915 C292.945,99.285 293.545,98.8 294.255,98.46 C294.965,98.12 295.77,97.95 296.67,97.95 C297.97,97.95 299.05,98.275 299.91,98.925 C300.77,99.575 301.41,100.44 301.83,101.52 L301.83,101.52 L303.87,100.29 C303.21,98.83 302.285,97.7 301.095,96.9 C299.905,96.1 298.43,95.7 296.67,95.7 C294.01,95.7 291.94,96.645 290.46,98.535 C288.98,100.425 288.24,103.13 288.24,106.65 C288.24,110.17 288.98,112.835 290.46,114.645 C291.94,116.455 294.01,117.36 296.67,117.36 Z M319.35,117 L319.35,114.78 L310.44,114.78 L310.44,96.06 L307.92,96.06 L307.92,117 L319.35,117 Z M330.36,117 L330.36,114.9 L327.42,114.9 L327.42,98.16 L330.36,98.16 L330.36,96.06 L321.96,96.06 L321.96,98.16 L324.9,98.16 L324.9,114.9 L321.96,114.9 L321.96,117 L330.36,117 Z" id="LaravelEnvironmentCLI" fill="#403937"></path>
        </g>
    </g>
</svg>

